<mxfile host="app.diagrams.net" agent="Mozilla/5.0 (X11; Linux x86_64; rv:139.0) Gecko/20100101 Firefox/139.0" version="28.1.1">
  <diagram id="C5RBs43oDa-KdzZeNtuy" name="Page-1">
    <mxGraphModel dx="1408" dy="297" grid="1" gridSize="10" guides="1" tooltips="1" connect="1" arrows="1" fold="1" page="1" pageScale="1" pageWidth="827" pageHeight="1169" math="0" shadow="0">
      <root>
        <mxCell id="WIyWlLk6GJQsqaUBKTNV-0" />
        <mxCell id="WIyWlLk6GJQsqaUBKTNV-1" parent="WIyWlLk6GJQsqaUBKTNV-0" />
        <mxCell id="M7CGMbNuYNeq0SnUNNgH-6" value="ทบทวนสัญลักษณ์" style="swimlane;fontFamily=Sarabun;fontSource=https%3A%2F%2Ffonts.googleapis.com%2Fcss%3Ffamily%3DSarabun;" parent="WIyWlLk6GJQsqaUBKTNV-1" vertex="1">
          <mxGeometry x="-720" y="20" width="640" height="290" as="geometry" />
        </mxCell>
        <mxCell id="M7CGMbNuYNeq0SnUNNgH-2" value="&lt;font data-font-src=&quot;https://fonts.googleapis.com/css?family=Sarabun&quot; face=&quot;Sarabun&quot;&gt;เริ่มต้น&lt;/font&gt;" style="ellipse;whiteSpace=wrap;html=1;" parent="M7CGMbNuYNeq0SnUNNgH-6" vertex="1">
          <mxGeometry x="20" y="40" width="130" height="30" as="geometry" />
        </mxCell>
        <mxCell id="M7CGMbNuYNeq0SnUNNgH-5" value="" style="endArrow=classic;html=1;rounded=0;" parent="M7CGMbNuYNeq0SnUNNgH-6" edge="1">
          <mxGeometry width="50" height="50" relative="1" as="geometry">
            <mxPoint x="84.5" y="70" as="sourcePoint" />
            <mxPoint x="84.5" y="120" as="targetPoint" />
          </mxGeometry>
        </mxCell>
        <mxCell id="M7CGMbNuYNeq0SnUNNgH-3" value="&lt;font face=&quot;Sarabun&quot;&gt;สิ้นสุด&lt;/font&gt;" style="ellipse;whiteSpace=wrap;html=1;" parent="M7CGMbNuYNeq0SnUNNgH-6" vertex="1">
          <mxGeometry x="150" y="90" width="130" height="30" as="geometry" />
        </mxCell>
        <mxCell id="M7CGMbNuYNeq0SnUNNgH-4" value="" style="endArrow=classic;html=1;rounded=0;" parent="M7CGMbNuYNeq0SnUNNgH-6" edge="1">
          <mxGeometry width="50" height="50" relative="1" as="geometry">
            <mxPoint x="214.5" y="40" as="sourcePoint" />
            <mxPoint x="214.5" y="90" as="targetPoint" />
          </mxGeometry>
        </mxCell>
        <mxCell id="mvioNwK95yMqdUQ73LqQ-0" value="กระบวนการ" style="rounded=0;whiteSpace=wrap;html=1;fontFamily=Sarabun;fontSource=https%3A%2F%2Ffonts.googleapis.com%2Fcss%3Ffamily%3DSarabun;" parent="M7CGMbNuYNeq0SnUNNgH-6" vertex="1">
          <mxGeometry x="320" y="70" width="120" height="30" as="geometry" />
        </mxCell>
        <mxCell id="mvioNwK95yMqdUQ73LqQ-1" value="" style="endArrow=classic;html=1;rounded=0;" parent="M7CGMbNuYNeq0SnUNNgH-6" edge="1">
          <mxGeometry width="50" height="50" relative="1" as="geometry">
            <mxPoint x="379" y="40" as="sourcePoint" />
            <mxPoint x="379.5" y="70" as="targetPoint" />
          </mxGeometry>
        </mxCell>
        <mxCell id="mvioNwK95yMqdUQ73LqQ-2" value="" style="endArrow=classic;html=1;rounded=0;" parent="M7CGMbNuYNeq0SnUNNgH-6" edge="1">
          <mxGeometry width="50" height="50" relative="1" as="geometry">
            <mxPoint x="379.75" y="100" as="sourcePoint" />
            <mxPoint x="380.25" y="130" as="targetPoint" />
          </mxGeometry>
        </mxCell>
        <mxCell id="mvioNwK95yMqdUQ73LqQ-3" value="ประโยคเงื่อนไข" style="rhombus;whiteSpace=wrap;html=1;fontFamily=Sarabun;fontSource=https%3A%2F%2Ffonts.googleapis.com%2Fcss%3Ffamily%3DSarabun;" parent="M7CGMbNuYNeq0SnUNNgH-6" vertex="1">
          <mxGeometry x="490" y="60" width="100" height="60" as="geometry" />
        </mxCell>
        <mxCell id="mvioNwK95yMqdUQ73LqQ-4" value="" style="endArrow=classic;html=1;rounded=0;" parent="M7CGMbNuYNeq0SnUNNgH-6" edge="1">
          <mxGeometry width="50" height="50" relative="1" as="geometry">
            <mxPoint x="539.71" y="30" as="sourcePoint" />
            <mxPoint x="540.21" y="60" as="targetPoint" />
          </mxGeometry>
        </mxCell>
        <mxCell id="mvioNwK95yMqdUQ73LqQ-5" value="" style="endArrow=classic;html=1;rounded=0;" parent="M7CGMbNuYNeq0SnUNNgH-6" edge="1">
          <mxGeometry width="50" height="50" relative="1" as="geometry">
            <mxPoint x="539.71" y="120" as="sourcePoint" />
            <mxPoint x="540" y="175" as="targetPoint" />
          </mxGeometry>
        </mxCell>
        <mxCell id="mvioNwK95yMqdUQ73LqQ-7" value="จริง" style="edgeLabel;html=1;align=center;verticalAlign=middle;resizable=0;points=[];fontFamily=Sarabun;fontSource=https%3A%2F%2Ffonts.googleapis.com%2Fcss%3Ffamily%3DSarabun;" parent="mvioNwK95yMqdUQ73LqQ-5" vertex="1" connectable="0">
          <mxGeometry x="-0.4142" y="-1" relative="1" as="geometry">
            <mxPoint as="offset" />
          </mxGeometry>
        </mxCell>
        <mxCell id="mvioNwK95yMqdUQ73LqQ-6" value="" style="endArrow=classic;html=1;rounded=0;exitX=1;exitY=0.5;exitDx=0;exitDy=0;" parent="M7CGMbNuYNeq0SnUNNgH-6" source="mvioNwK95yMqdUQ73LqQ-3" edge="1">
          <mxGeometry width="50" height="50" relative="1" as="geometry">
            <mxPoint x="620" y="95" as="sourcePoint" />
            <mxPoint x="610" y="175" as="targetPoint" />
            <Array as="points">
              <mxPoint x="610" y="90" />
            </Array>
          </mxGeometry>
        </mxCell>
        <mxCell id="mvioNwK95yMqdUQ73LqQ-8" value="&lt;font data-font-src=&quot;https://fonts.googleapis.com/css?family=Sarabun&quot; face=&quot;Sarabun&quot;&gt;เท็จ&lt;/font&gt;" style="edgeLabel;html=1;align=center;verticalAlign=middle;resizable=0;points=[];" parent="mvioNwK95yMqdUQ73LqQ-6" vertex="1" connectable="0">
          <mxGeometry x="-0.0019" y="-2" relative="1" as="geometry">
            <mxPoint as="offset" />
          </mxGeometry>
        </mxCell>
        <mxCell id="mvioNwK95yMqdUQ73LqQ-9" value="&lt;font data-font-src=&quot;https://fonts.googleapis.com/css?family=Sarabun&quot; face=&quot;Sarabun&quot;&gt;ฟังก์ชัน/โมดูล&lt;/font&gt;" style="shape=process;whiteSpace=wrap;html=1;backgroundOutline=1;" parent="M7CGMbNuYNeq0SnUNNgH-6" vertex="1">
          <mxGeometry x="25" y="180" width="120" height="30" as="geometry" />
        </mxCell>
        <mxCell id="mvioNwK95yMqdUQ73LqQ-11" value="" style="endArrow=classic;html=1;rounded=0;" parent="M7CGMbNuYNeq0SnUNNgH-6" edge="1">
          <mxGeometry width="50" height="50" relative="1" as="geometry">
            <mxPoint x="84.70999999999998" y="150" as="sourcePoint" />
            <mxPoint x="85.20999999999998" y="180" as="targetPoint" />
          </mxGeometry>
        </mxCell>
        <mxCell id="mvioNwK95yMqdUQ73LqQ-12" value="" style="endArrow=classic;html=1;rounded=0;" parent="M7CGMbNuYNeq0SnUNNgH-6" edge="1">
          <mxGeometry width="50" height="50" relative="1" as="geometry">
            <mxPoint x="84.70999999999998" y="210" as="sourcePoint" />
            <mxPoint x="85.20999999999998" y="240" as="targetPoint" />
          </mxGeometry>
        </mxCell>
        <mxCell id="mvioNwK95yMqdUQ73LqQ-13" value="" style="strokeWidth=2;html=1;shape=mxgraph.flowchart.start_2;whiteSpace=wrap;" parent="M7CGMbNuYNeq0SnUNNgH-6" vertex="1">
          <mxGeometry x="205" y="185" width="20" height="20" as="geometry" />
        </mxCell>
        <mxCell id="mvioNwK95yMqdUQ73LqQ-16" value="" style="endArrow=classic;html=1;rounded=0;" parent="M7CGMbNuYNeq0SnUNNgH-6" edge="1">
          <mxGeometry width="50" height="50" relative="1" as="geometry">
            <mxPoint x="214.70999999999998" y="155" as="sourcePoint" />
            <mxPoint x="215.20999999999998" y="185" as="targetPoint" />
          </mxGeometry>
        </mxCell>
        <mxCell id="mvioNwK95yMqdUQ73LqQ-17" value="" style="endArrow=classic;html=1;rounded=0;entryX=0;entryY=0.5;entryDx=0;entryDy=0;entryPerimeter=0;" parent="M7CGMbNuYNeq0SnUNNgH-6" target="mvioNwK95yMqdUQ73LqQ-13" edge="1">
          <mxGeometry width="50" height="50" relative="1" as="geometry">
            <mxPoint x="189.99999999999997" y="155" as="sourcePoint" />
            <mxPoint x="190.49999999999997" y="185" as="targetPoint" />
            <Array as="points">
              <mxPoint x="190" y="180" />
            </Array>
          </mxGeometry>
        </mxCell>
        <mxCell id="mvioNwK95yMqdUQ73LqQ-18" value="" style="endArrow=classic;html=1;rounded=0;entryX=1;entryY=0.5;entryDx=0;entryDy=0;entryPerimeter=0;" parent="M7CGMbNuYNeq0SnUNNgH-6" target="mvioNwK95yMqdUQ73LqQ-13" edge="1">
          <mxGeometry width="50" height="50" relative="1" as="geometry">
            <mxPoint x="239.99999999999997" y="155" as="sourcePoint" />
            <mxPoint x="240.49999999999997" y="185" as="targetPoint" />
            <Array as="points">
              <mxPoint x="240" y="180" />
            </Array>
          </mxGeometry>
        </mxCell>
        <mxCell id="mvioNwK95yMqdUQ73LqQ-19" value="" style="endArrow=classic;html=1;rounded=0;" parent="M7CGMbNuYNeq0SnUNNgH-6" edge="1">
          <mxGeometry width="50" height="50" relative="1" as="geometry">
            <mxPoint x="214.70999999999998" y="205" as="sourcePoint" />
            <mxPoint x="215.20999999999998" y="235" as="targetPoint" />
          </mxGeometry>
        </mxCell>
        <mxCell id="mvioNwK95yMqdUQ73LqQ-20" value="&lt;font data-font-src=&quot;https://fonts.googleapis.com/css?family=Sarabun&quot; face=&quot;Sarabun&quot;&gt;ตัวเชื่อม&lt;/font&gt;" style="text;html=1;align=center;verticalAlign=middle;resizable=0;points=[];autosize=1;strokeColor=none;fillColor=none;" parent="M7CGMbNuYNeq0SnUNNgH-6" vertex="1">
          <mxGeometry x="220" y="190" width="60" height="30" as="geometry" />
        </mxCell>
        <mxCell id="mvioNwK95yMqdUQ73LqQ-25" value="" style="endArrow=classic;html=1;rounded=0;" parent="M7CGMbNuYNeq0SnUNNgH-6" edge="1">
          <mxGeometry width="50" height="50" relative="1" as="geometry">
            <mxPoint x="353.71" y="165" as="sourcePoint" />
            <mxPoint x="354.21" y="195" as="targetPoint" />
          </mxGeometry>
        </mxCell>
        <mxCell id="mvioNwK95yMqdUQ73LqQ-21" value="" style="verticalLabelPosition=bottom;verticalAlign=top;html=1;shape=offPageConnector;rounded=0;size=0.5;" parent="M7CGMbNuYNeq0SnUNNgH-6" vertex="1">
          <mxGeometry x="339" y="195" width="30" height="30" as="geometry" />
        </mxCell>
        <mxCell id="mvioNwK95yMqdUQ73LqQ-26" value="" style="endArrow=classic;html=1;rounded=0;" parent="M7CGMbNuYNeq0SnUNNgH-6" edge="1">
          <mxGeometry width="50" height="50" relative="1" as="geometry">
            <mxPoint x="405.71" y="195" as="sourcePoint" />
            <mxPoint x="406.21" y="225" as="targetPoint" />
          </mxGeometry>
        </mxCell>
        <mxCell id="mvioNwK95yMqdUQ73LqQ-27" value="" style="verticalLabelPosition=bottom;verticalAlign=top;html=1;shape=offPageConnector;rounded=0;size=0.5;" parent="M7CGMbNuYNeq0SnUNNgH-6" vertex="1">
          <mxGeometry x="391" y="165" width="30" height="30" as="geometry" />
        </mxCell>
        <mxCell id="mvioNwK95yMqdUQ73LqQ-28" value="หน้าต่อไป" style="text;html=1;align=center;verticalAlign=middle;resizable=0;points=[];autosize=1;strokeColor=none;fillColor=none;fontFamily=Sarabun;fontSource=https%3A%2F%2Ffonts.googleapis.com%2Fcss%3Ffamily%3DSarabun;" parent="M7CGMbNuYNeq0SnUNNgH-6" vertex="1">
          <mxGeometry x="345" y="220" width="70" height="30" as="geometry" />
        </mxCell>
        <mxCell id="mvioNwK95yMqdUQ73LqQ-29" value="ก" style="text;html=1;align=center;verticalAlign=middle;resizable=0;points=[];autosize=1;strokeColor=none;fillColor=none;fontFamily=Sarabun;fontSource=https%3A%2F%2Ffonts.googleapis.com%2Fcss%3Ffamily%3DSarabun;" parent="M7CGMbNuYNeq0SnUNNgH-6" vertex="1">
          <mxGeometry x="339" y="190" width="30" height="30" as="geometry" />
        </mxCell>
        <mxCell id="mvioNwK95yMqdUQ73LqQ-30" value="ก" style="text;html=1;align=center;verticalAlign=middle;resizable=0;points=[];autosize=1;strokeColor=none;fillColor=none;fontFamily=Sarabun;fontSource=https%3A%2F%2Ffonts.googleapis.com%2Fcss%3Ffamily%3DSarabun;" parent="M7CGMbNuYNeq0SnUNNgH-6" vertex="1">
          <mxGeometry x="391" y="160" width="30" height="30" as="geometry" />
        </mxCell>
        <mxCell id="mvioNwK95yMqdUQ73LqQ-32" value="แสดงผล/รับค่า" style="shape=parallelogram;perimeter=parallelogramPerimeter;whiteSpace=wrap;html=1;fixedSize=1;fontFamily=Sarabun;fontSource=https%3A%2F%2Ffonts.googleapis.com%2Fcss%3Ffamily%3DSarabun;" parent="M7CGMbNuYNeq0SnUNNgH-6" vertex="1">
          <mxGeometry x="450" y="210" width="120" height="30" as="geometry" />
        </mxCell>
        <mxCell id="mvioNwK95yMqdUQ73LqQ-33" value="" style="endArrow=classic;html=1;rounded=0;" parent="M7CGMbNuYNeq0SnUNNgH-6" edge="1">
          <mxGeometry width="50" height="50" relative="1" as="geometry">
            <mxPoint x="509.71" y="180" as="sourcePoint" />
            <mxPoint x="510.21" y="210" as="targetPoint" />
          </mxGeometry>
        </mxCell>
        <mxCell id="mvioNwK95yMqdUQ73LqQ-34" value="" style="endArrow=classic;html=1;rounded=0;" parent="M7CGMbNuYNeq0SnUNNgH-6" edge="1">
          <mxGeometry width="50" height="50" relative="1" as="geometry">
            <mxPoint x="509.71" y="240" as="sourcePoint" />
            <mxPoint x="510.21" y="270" as="targetPoint" />
          </mxGeometry>
        </mxCell>
        <mxCell id="mvioNwK95yMqdUQ73LqQ-36" value="แก้ไขโจทย์ปัญหา" style="swimlane;fontFamily=Sarabun;fontSource=https%3A%2F%2Ffonts.googleapis.com%2Fcss%3Ffamily%3DSarabun;" parent="WIyWlLk6GJQsqaUBKTNV-1" vertex="1">
          <mxGeometry x="-560" y="660" width="1690" height="2670" as="geometry" />
        </mxCell>
        <mxCell id="TH5dXeyseCZ48k5fmUFu-27" value="" style="edgeStyle=orthogonalEdgeStyle;rounded=0;orthogonalLoop=1;jettySize=auto;html=1;" parent="mvioNwK95yMqdUQ73LqQ-36" source="mvioNwK95yMqdUQ73LqQ-35" target="TH5dXeyseCZ48k5fmUFu-0" edge="1">
          <mxGeometry relative="1" as="geometry" />
        </mxCell>
        <mxCell id="mvioNwK95yMqdUQ73LqQ-35" value="&lt;font data-font-src=&quot;https://fonts.googleapis.com/css?family=Sarabun&quot; face=&quot;Sarabun&quot;&gt;เริ่มต้น&lt;/font&gt;" style="ellipse;whiteSpace=wrap;html=1;" parent="mvioNwK95yMqdUQ73LqQ-36" vertex="1">
          <mxGeometry x="255" y="40" width="130" height="30" as="geometry" />
        </mxCell>
        <mxCell id="mvioNwK95yMqdUQ73LqQ-69" value="&lt;font face=&quot;Sarabun&quot;&gt;สิ้นสุด&lt;/font&gt;" style="ellipse;whiteSpace=wrap;html=1;" parent="mvioNwK95yMqdUQ73LqQ-36" vertex="1">
          <mxGeometry x="1285" y="2560" width="110" height="30" as="geometry" />
        </mxCell>
        <mxCell id="--RPbOU_gB9kEVK29LaJ-19" value="" style="edgeStyle=orthogonalEdgeStyle;rounded=0;orthogonalLoop=1;jettySize=auto;html=1;" edge="1" parent="mvioNwK95yMqdUQ73LqQ-36" source="TH5dXeyseCZ48k5fmUFu-0" target="--RPbOU_gB9kEVK29LaJ-18">
          <mxGeometry relative="1" as="geometry" />
        </mxCell>
        <mxCell id="TH5dXeyseCZ48k5fmUFu-0" value="int&amp;nbsp;&lt;span style=&quot;font-size: 14px; text-align: left; text-wrap-mode: nowrap;&quot;&gt;โค้ก = 10 ,&lt;/span&gt;&lt;span style=&quot;font-size: 14px; text-align: left; text-wrap-mode: nowrap;&quot;&gt;น้ำเขียว = 12 ,&lt;/span&gt;&lt;span style=&quot;font-size: 14px; text-align: left; text-wrap-mode: nowrap;&quot;&gt;อเมริกาโน่ =30 ,&lt;/span&gt;&lt;div&gt;&lt;span style=&quot;font-size: 14px; text-align: left; text-wrap-mode: nowrap;&quot;&gt;ลาเต้ หวานเจี๊ยบ = 35 ,&lt;/span&gt;&lt;span style=&quot;font-size: 14px; text-align: left; text-wrap-mode: nowrap;&quot;&gt;&lt;/span&gt;&lt;span style=&quot;font-size: 14px; text-align: left; text-wrap-mode: nowrap; background-color: transparent; color: light-dark(rgb(0, 0, 0), rgb(255, 255, 255));&quot;&gt;เมล็ดทานตะวัน = 13 ,&lt;/span&gt;&lt;/div&gt;&lt;div&gt;&lt;span style=&quot;font-size: 14px; text-align: left; text-wrap-mode: nowrap;&quot;&gt;ถั่วแปบ = 20 ,&lt;/span&gt;&lt;span style=&quot;font-size: 14px; text-align: left; text-wrap-mode: nowrap; background-color: transparent; color: light-dark(rgb(0, 0, 0), rgb(255, 255, 255));&quot;&gt;&lt;/span&gt;&lt;span style=&quot;font-size: 14px; text-align: left; text-wrap-mode: nowrap; background-color: transparent; color: light-dark(rgb(0, 0, 0), rgb(255, 255, 255));&quot;&gt;จิ้นส้มหมก = 15&lt;/span&gt;&lt;/div&gt;" style="rounded=0;whiteSpace=wrap;html=1;fontFamily=Sarabun;fontSource=https%3A%2F%2Ffonts.googleapis.com%2Fcss%3Ffamily%3DSarabun;" parent="mvioNwK95yMqdUQ73LqQ-36" vertex="1">
          <mxGeometry x="185" y="120" width="270" height="60" as="geometry" />
        </mxCell>
        <mxCell id="TH5dXeyseCZ48k5fmUFu-30" value="" style="edgeStyle=orthogonalEdgeStyle;rounded=0;orthogonalLoop=1;jettySize=auto;html=1;" parent="mvioNwK95yMqdUQ73LqQ-36" source="--RPbOU_gB9kEVK29LaJ-1" edge="1">
          <mxGeometry relative="1" as="geometry">
            <mxPoint x="320.0526315789473" y="610" as="sourcePoint" />
            <mxPoint x="320" y="660" as="targetPoint" />
          </mxGeometry>
        </mxCell>
        <mxCell id="TH5dXeyseCZ48k5fmUFu-29" value="" style="edgeStyle=orthogonalEdgeStyle;rounded=0;orthogonalLoop=1;jettySize=auto;html=1;" parent="mvioNwK95yMqdUQ73LqQ-36" source="TH5dXeyseCZ48k5fmUFu-18" edge="1">
          <mxGeometry relative="1" as="geometry">
            <mxPoint x="320" y="580" as="targetPoint" />
          </mxGeometry>
        </mxCell>
        <mxCell id="TH5dXeyseCZ48k5fmUFu-18" value="&lt;div&gt;แสดง&lt;/div&gt;&lt;div&gt;&lt;br&gt;&lt;/div&gt;&lt;div align=&quot;left&quot;&gt;&lt;font style=&quot;font-size: 14px;&quot;&gt;รายการสินค้า&lt;/font&gt;&lt;/div&gt;&lt;div&gt;&lt;br&gt;&lt;div&gt;&lt;span style=&quot;font-size: 14px; text-align: left; text-wrap-mode: nowrap;&quot;&gt;1. โค้ก กระป๋องละ 10 บาท&lt;/span&gt;&lt;/div&gt;&lt;div&gt;&lt;span style=&quot;font-size: 14px; text-align: left; text-wrap-mode: nowrap;&quot;&gt;2. เมล็ดทานตะวัน 13 บาท&lt;/span&gt;&lt;/div&gt;&lt;div&gt;&lt;span style=&quot;background-color: transparent; color: light-dark(rgb(0, 0, 0), rgb(255, 255, 255)); text-wrap-mode: nowrap; font-size: 14px; text-align: left;&quot;&gt;3. น้ำเขียว กระป๋องละ 12 บาท&lt;/span&gt;&lt;/div&gt;&lt;div&gt;&lt;span style=&quot;background-color: transparent; color: light-dark(rgb(0, 0, 0), rgb(255, 255, 255)); text-wrap-mode: nowrap; font-size: 14px; text-align: left;&quot;&gt;4. ถั่วแปบ 20 บาท&lt;/span&gt;&lt;/div&gt;&lt;div&gt;&lt;span style=&quot;font-size: 14px; text-align: left; text-wrap-mode: nowrap; background-color: transparent; color: light-dark(rgb(0, 0, 0), rgb(255, 255, 255));&quot;&gt;5. อเมริกาโน่ 30 บาท&lt;/span&gt;&lt;/div&gt;&lt;div&gt;&lt;span style=&quot;background-color: transparent; color: light-dark(rgb(0, 0, 0), rgb(255, 255, 255)); text-wrap-mode: nowrap; font-size: 14px; text-align: left;&quot;&gt;6. จิ้นส้มหมก 15 บาท&lt;/span&gt;&lt;/div&gt;&lt;div&gt;&lt;span style=&quot;background-color: transparent; color: light-dark(rgb(0, 0, 0), rgb(255, 255, 255)); text-wrap-mode: nowrap; font-size: 14px; text-align: left;&quot;&gt;7. ลาเต้ หวานเจี๊ยบ 35 บาท&lt;/span&gt;&lt;/div&gt;&lt;/div&gt;" style="shape=parallelogram;perimeter=parallelogramPerimeter;whiteSpace=wrap;html=1;fixedSize=1;fontFamily=Sarabun;fontSource=https%3A%2F%2Ffonts.googleapis.com%2Fcss%3Ffamily%3DSarabun;" parent="mvioNwK95yMqdUQ73LqQ-36" vertex="1">
          <mxGeometry x="205" y="340" width="230" height="190" as="geometry" />
        </mxCell>
        <mxCell id="--RPbOU_gB9kEVK29LaJ-1" value="กรุณาใส่จำนวนสินค้าที่ต้องการซื้อ" style="shape=parallelogram;perimeter=parallelogramPerimeter;whiteSpace=wrap;html=1;fixedSize=1;fontFamily=Sarabun;fontSource=https%3A%2F%2Ffonts.googleapis.com%2Fcss%3Ffamily%3DSarabun;align=center;" vertex="1" parent="mvioNwK95yMqdUQ73LqQ-36">
          <mxGeometry x="220" y="580" width="200" height="40" as="geometry" />
        </mxCell>
        <mxCell id="--RPbOU_gB9kEVK29LaJ-4" value="โค้ก : (จำนวน)" style="shape=parallelogram;perimeter=parallelogramPerimeter;whiteSpace=wrap;html=1;fixedSize=1;fontFamily=Sarabun;fontSource=https%3A%2F%2Ffonts.googleapis.com%2Fcss%3Ffamily%3DSarabun;align=center;" vertex="1" parent="mvioNwK95yMqdUQ73LqQ-36">
          <mxGeometry x="240" y="660" width="170" height="30" as="geometry" />
        </mxCell>
        <mxCell id="--RPbOU_gB9kEVK29LaJ-9" value="" style="edgeStyle=orthogonalEdgeStyle;rounded=0;orthogonalLoop=1;jettySize=auto;html=1;" edge="1" parent="mvioNwK95yMqdUQ73LqQ-36" source="--RPbOU_gB9kEVK29LaJ-5" target="--RPbOU_gB9kEVK29LaJ-8">
          <mxGeometry relative="1" as="geometry" />
        </mxCell>
        <mxCell id="--RPbOU_gB9kEVK29LaJ-5" value="เมล็ดทานตะวัน : (จำนวน)" style="shape=parallelogram;perimeter=parallelogramPerimeter;whiteSpace=wrap;html=1;fixedSize=1;fontFamily=Sarabun;fontSource=https%3A%2F%2Ffonts.googleapis.com%2Fcss%3Ffamily%3DSarabun;align=center;" vertex="1" parent="mvioNwK95yMqdUQ73LqQ-36">
          <mxGeometry x="235" y="730" width="170" height="30" as="geometry" />
        </mxCell>
        <mxCell id="--RPbOU_gB9kEVK29LaJ-7" value="" style="edgeStyle=orthogonalEdgeStyle;rounded=0;orthogonalLoop=1;jettySize=auto;html=1;" edge="1" parent="mvioNwK95yMqdUQ73LqQ-36">
          <mxGeometry relative="1" as="geometry">
            <mxPoint x="319.76" y="690" as="sourcePoint" />
            <mxPoint x="319.76" y="730" as="targetPoint" />
          </mxGeometry>
        </mxCell>
        <mxCell id="--RPbOU_gB9kEVK29LaJ-11" value="" style="edgeStyle=orthogonalEdgeStyle;rounded=0;orthogonalLoop=1;jettySize=auto;html=1;" edge="1" parent="mvioNwK95yMqdUQ73LqQ-36" source="--RPbOU_gB9kEVK29LaJ-8" target="--RPbOU_gB9kEVK29LaJ-10">
          <mxGeometry relative="1" as="geometry" />
        </mxCell>
        <mxCell id="--RPbOU_gB9kEVK29LaJ-8" value="น้ำเขียว : (จำนวน)" style="shape=parallelogram;perimeter=parallelogramPerimeter;whiteSpace=wrap;html=1;fixedSize=1;fontFamily=Sarabun;fontSource=https%3A%2F%2Ffonts.googleapis.com%2Fcss%3Ffamily%3DSarabun;align=center;" vertex="1" parent="mvioNwK95yMqdUQ73LqQ-36">
          <mxGeometry x="255" y="790" width="130" height="30" as="geometry" />
        </mxCell>
        <mxCell id="--RPbOU_gB9kEVK29LaJ-13" value="" style="edgeStyle=orthogonalEdgeStyle;rounded=0;orthogonalLoop=1;jettySize=auto;html=1;" edge="1" parent="mvioNwK95yMqdUQ73LqQ-36" source="--RPbOU_gB9kEVK29LaJ-10" target="--RPbOU_gB9kEVK29LaJ-12">
          <mxGeometry relative="1" as="geometry" />
        </mxCell>
        <mxCell id="--RPbOU_gB9kEVK29LaJ-10" value="ถั่วแปป : (จำนวน)" style="shape=parallelogram;perimeter=parallelogramPerimeter;whiteSpace=wrap;html=1;fixedSize=1;fontFamily=Sarabun;fontSource=https%3A%2F%2Ffonts.googleapis.com%2Fcss%3Ffamily%3DSarabun;align=center;" vertex="1" parent="mvioNwK95yMqdUQ73LqQ-36">
          <mxGeometry x="255" y="850" width="130" height="30" as="geometry" />
        </mxCell>
        <mxCell id="--RPbOU_gB9kEVK29LaJ-15" value="" style="edgeStyle=orthogonalEdgeStyle;rounded=0;orthogonalLoop=1;jettySize=auto;html=1;" edge="1" parent="mvioNwK95yMqdUQ73LqQ-36" source="--RPbOU_gB9kEVK29LaJ-12" target="--RPbOU_gB9kEVK29LaJ-14">
          <mxGeometry relative="1" as="geometry" />
        </mxCell>
        <mxCell id="--RPbOU_gB9kEVK29LaJ-12" value="อเมริกาโน่ : (จำนวน)" style="shape=parallelogram;perimeter=parallelogramPerimeter;whiteSpace=wrap;html=1;fixedSize=1;fontFamily=Sarabun;fontSource=https%3A%2F%2Ffonts.googleapis.com%2Fcss%3Ffamily%3DSarabun;align=center;" vertex="1" parent="mvioNwK95yMqdUQ73LqQ-36">
          <mxGeometry x="255" y="900" width="130" height="30" as="geometry" />
        </mxCell>
        <mxCell id="--RPbOU_gB9kEVK29LaJ-17" value="" style="edgeStyle=orthogonalEdgeStyle;rounded=0;orthogonalLoop=1;jettySize=auto;html=1;" edge="1" parent="mvioNwK95yMqdUQ73LqQ-36" source="--RPbOU_gB9kEVK29LaJ-14" target="--RPbOU_gB9kEVK29LaJ-16">
          <mxGeometry relative="1" as="geometry" />
        </mxCell>
        <mxCell id="--RPbOU_gB9kEVK29LaJ-14" value="จิ้นส้มหมก : (จำนวน)" style="shape=parallelogram;perimeter=parallelogramPerimeter;whiteSpace=wrap;html=1;fixedSize=1;fontFamily=Sarabun;fontSource=https%3A%2F%2Ffonts.googleapis.com%2Fcss%3Ffamily%3DSarabun;align=center;" vertex="1" parent="mvioNwK95yMqdUQ73LqQ-36">
          <mxGeometry x="255" y="950" width="130" height="30" as="geometry" />
        </mxCell>
        <mxCell id="--RPbOU_gB9kEVK29LaJ-24" value="" style="edgeStyle=orthogonalEdgeStyle;rounded=0;orthogonalLoop=1;jettySize=auto;html=1;" edge="1" parent="mvioNwK95yMqdUQ73LqQ-36" source="--RPbOU_gB9kEVK29LaJ-16" target="--RPbOU_gB9kEVK29LaJ-23">
          <mxGeometry relative="1" as="geometry" />
        </mxCell>
        <mxCell id="--RPbOU_gB9kEVK29LaJ-16" value="ลาเต้หวานเจี๊ยบ : (จำนวน)" style="shape=parallelogram;perimeter=parallelogramPerimeter;whiteSpace=wrap;html=1;fixedSize=1;fontFamily=Sarabun;fontSource=https%3A%2F%2Ffonts.googleapis.com%2Fcss%3Ffamily%3DSarabun;align=center;" vertex="1" parent="mvioNwK95yMqdUQ73LqQ-36">
          <mxGeometry x="240" y="1010" width="160" height="30" as="geometry" />
        </mxCell>
        <mxCell id="--RPbOU_gB9kEVK29LaJ-21" value="" style="edgeStyle=orthogonalEdgeStyle;rounded=0;orthogonalLoop=1;jettySize=auto;html=1;" edge="1" parent="mvioNwK95yMqdUQ73LqQ-36" source="--RPbOU_gB9kEVK29LaJ-18" target="--RPbOU_gB9kEVK29LaJ-20">
          <mxGeometry relative="1" as="geometry" />
        </mxCell>
        <mxCell id="--RPbOU_gB9kEVK29LaJ-18" value="&lt;font style=&quot;font-size: 14px;&quot;&gt;int qty_โค้ก = 0, qty_อเมริกาโน่ = 0&lt;/font&gt;" style="rounded=0;whiteSpace=wrap;html=1;fontFamily=Sarabun;fontSource=https%3A%2F%2Ffonts.googleapis.com%2Fcss%3Ffamily%3DSarabun;" vertex="1" parent="mvioNwK95yMqdUQ73LqQ-36">
          <mxGeometry x="215" y="210" width="210" height="30" as="geometry" />
        </mxCell>
        <mxCell id="--RPbOU_gB9kEVK29LaJ-22" value="" style="edgeStyle=orthogonalEdgeStyle;rounded=0;orthogonalLoop=1;jettySize=auto;html=1;" edge="1" parent="mvioNwK95yMqdUQ73LqQ-36" source="--RPbOU_gB9kEVK29LaJ-20" target="TH5dXeyseCZ48k5fmUFu-18">
          <mxGeometry relative="1" as="geometry" />
        </mxCell>
        <mxCell id="--RPbOU_gB9kEVK29LaJ-20" value="&lt;font style=&quot;font-size: 14px;&quot;&gt;int qty_ลาเต้_หวานเจี๊ยบ = 0, qty_เมล็ดทานตะวัน = 0, qty_ถั่วแปป = 0, qty_จิ้นส้มหมก = 0&lt;/font&gt;" style="rounded=0;whiteSpace=wrap;html=1;fontFamily=Sarabun;fontSource=https%3A%2F%2Ffonts.googleapis.com%2Fcss%3Ffamily%3DSarabun;" vertex="1" parent="mvioNwK95yMqdUQ73LqQ-36">
          <mxGeometry x="152.5" y="270" width="335" height="40" as="geometry" />
        </mxCell>
        <mxCell id="--RPbOU_gB9kEVK29LaJ-26" value="" style="edgeStyle=orthogonalEdgeStyle;rounded=0;orthogonalLoop=1;jettySize=auto;html=1;" edge="1" parent="mvioNwK95yMqdUQ73LqQ-36" source="--RPbOU_gB9kEVK29LaJ-23" target="--RPbOU_gB9kEVK29LaJ-25">
          <mxGeometry relative="1" as="geometry" />
        </mxCell>
        <mxCell id="--RPbOU_gB9kEVK29LaJ-23" value="&lt;div&gt;int&amp;nbsp;&lt;span style=&quot;font-size: 14px; text-align: left; text-wrap-mode: nowrap;&quot;&gt;รวมทั้งหมด = (qty_โค้ก * โค้ก) + (qty_เมล็ดทานตะวัน * เมล็ดทานตะวัน) +&amp;nbsp;&lt;/span&gt;&lt;/div&gt;&lt;div&gt;&lt;span style=&quot;font-size: 14px; text-align: left; text-wrap-mode: nowrap;&quot;&gt;(qty_น้ำเขียว *&amp;nbsp;&lt;/span&gt;&lt;span style=&quot;font-size: 14px; text-align: left; text-wrap-mode: nowrap;&quot;&gt;น้ำเขียว) + (qty_ถั่วแปป * ถั่วแปป) + (qty_อเมริกาโน่ * อเมริกาโน่) +&amp;nbsp;&lt;/span&gt;&lt;/div&gt;&lt;div&gt;&lt;font style=&quot;font-size: 14px;&quot;&gt;(qty_จิ้นส้มหมก * จิ้นส้มหมก) + (qty_ลาเต้_หวานเจี๊ยบ * ลาเต้_หวานเจี๊ยบ)&lt;/font&gt;&lt;/div&gt;" style="rounded=0;whiteSpace=wrap;html=1;fontFamily=Sarabun;fontSource=https%3A%2F%2Ffonts.googleapis.com%2Fcss%3Ffamily%3DSarabun;" vertex="1" parent="mvioNwK95yMqdUQ73LqQ-36">
          <mxGeometry x="80" y="1070" width="480" height="70" as="geometry" />
        </mxCell>
        <mxCell id="--RPbOU_gB9kEVK29LaJ-28" value="" style="edgeStyle=orthogonalEdgeStyle;rounded=0;orthogonalLoop=1;jettySize=auto;html=1;" edge="1" parent="mvioNwK95yMqdUQ73LqQ-36" source="--RPbOU_gB9kEVK29LaJ-25" target="--RPbOU_gB9kEVK29LaJ-27">
          <mxGeometry relative="1" as="geometry" />
        </mxCell>
        <mxCell id="--RPbOU_gB9kEVK29LaJ-25" value="ราคารวมทั้งหมด:____ บาท" style="shape=parallelogram;perimeter=parallelogramPerimeter;whiteSpace=wrap;html=1;fixedSize=1;fontFamily=Sarabun;fontSource=https%3A%2F%2Ffonts.googleapis.com%2Fcss%3Ffamily%3DSarabun;align=center;" vertex="1" parent="mvioNwK95yMqdUQ73LqQ-36">
          <mxGeometry x="245" y="1170" width="150" height="30" as="geometry" />
        </mxCell>
        <mxCell id="--RPbOU_gB9kEVK29LaJ-30" value="" style="edgeStyle=orthogonalEdgeStyle;rounded=0;orthogonalLoop=1;jettySize=auto;html=1;" edge="1" parent="mvioNwK95yMqdUQ73LqQ-36" source="--RPbOU_gB9kEVK29LaJ-27" target="--RPbOU_gB9kEVK29LaJ-29">
          <mxGeometry relative="1" as="geometry" />
        </mxCell>
        <mxCell id="--RPbOU_gB9kEVK29LaJ-27" value="int เงินที่รับ" style="rounded=0;whiteSpace=wrap;html=1;fontFamily=Sarabun;fontSource=https%3A%2F%2Ffonts.googleapis.com%2Fcss%3Ffamily%3DSarabun;" vertex="1" parent="mvioNwK95yMqdUQ73LqQ-36">
          <mxGeometry x="276.25" y="1230" width="87.5" height="30" as="geometry" />
        </mxCell>
        <mxCell id="--RPbOU_gB9kEVK29LaJ-32" value="" style="edgeStyle=orthogonalEdgeStyle;rounded=0;orthogonalLoop=1;jettySize=auto;html=1;" edge="1" parent="mvioNwK95yMqdUQ73LqQ-36" source="--RPbOU_gB9kEVK29LaJ-29" target="--RPbOU_gB9kEVK29LaJ-31">
          <mxGeometry relative="1" as="geometry" />
        </mxCell>
        <mxCell id="--RPbOU_gB9kEVK29LaJ-29" value="กรุณาใส่เงิน" style="shape=parallelogram;perimeter=parallelogramPerimeter;whiteSpace=wrap;html=1;fixedSize=1;fontFamily=Sarabun;fontSource=https%3A%2F%2Ffonts.googleapis.com%2Fcss%3Ffamily%3DSarabun;align=center;" vertex="1" parent="mvioNwK95yMqdUQ73LqQ-36">
          <mxGeometry x="260" y="1290" width="120" height="40" as="geometry" />
        </mxCell>
        <mxCell id="--RPbOU_gB9kEVK29LaJ-34" value="" style="edgeStyle=orthogonalEdgeStyle;rounded=0;orthogonalLoop=1;jettySize=auto;html=1;" edge="1" parent="mvioNwK95yMqdUQ73LqQ-36" source="--RPbOU_gB9kEVK29LaJ-31" target="--RPbOU_gB9kEVK29LaJ-33">
          <mxGeometry relative="1" as="geometry" />
        </mxCell>
        <mxCell id="--RPbOU_gB9kEVK29LaJ-36" value="" style="edgeStyle=orthogonalEdgeStyle;rounded=0;orthogonalLoop=1;jettySize=auto;html=1;" edge="1" parent="mvioNwK95yMqdUQ73LqQ-36" source="--RPbOU_gB9kEVK29LaJ-31" target="--RPbOU_gB9kEVK29LaJ-35">
          <mxGeometry relative="1" as="geometry" />
        </mxCell>
        <mxCell id="--RPbOU_gB9kEVK29LaJ-31" value="เงินที่รับ &amp;lt; รวมทั้งหมด" style="rhombus;whiteSpace=wrap;html=1;" vertex="1" parent="mvioNwK95yMqdUQ73LqQ-36">
          <mxGeometry x="248.13" y="1390" width="143.75" height="120" as="geometry" />
        </mxCell>
        <mxCell id="--RPbOU_gB9kEVK29LaJ-33" value="&lt;div&gt;จำนวนเงินไม่เพียงพอ&lt;/div&gt;&lt;div&gt;กรุณาชำระเงินเพิ่ม&lt;/div&gt;" style="shape=parallelogram;perimeter=parallelogramPerimeter;whiteSpace=wrap;html=1;fixedSize=1;fontFamily=Sarabun;fontSource=https%3A%2F%2Ffonts.googleapis.com%2Fcss%3Ffamily%3DSarabun;align=center;" vertex="1" parent="mvioNwK95yMqdUQ73LqQ-36">
          <mxGeometry x="470" y="1430" width="137.5" height="40" as="geometry" />
        </mxCell>
        <mxCell id="--RPbOU_gB9kEVK29LaJ-40" value="" style="edgeStyle=orthogonalEdgeStyle;rounded=0;orthogonalLoop=1;jettySize=auto;html=1;" edge="1" parent="mvioNwK95yMqdUQ73LqQ-36" source="--RPbOU_gB9kEVK29LaJ-35" target="--RPbOU_gB9kEVK29LaJ-39">
          <mxGeometry relative="1" as="geometry" />
        </mxCell>
        <mxCell id="--RPbOU_gB9kEVK29LaJ-35" value="int เงินทอน = เงินที่รับ - รวมทั้งหมด" style="rounded=0;whiteSpace=wrap;html=1;" vertex="1" parent="mvioNwK95yMqdUQ73LqQ-36">
          <mxGeometry x="225.94" y="1540" width="188.12" height="40" as="geometry" />
        </mxCell>
        <mxCell id="--RPbOU_gB9kEVK29LaJ-42" value="" style="edgeStyle=orthogonalEdgeStyle;rounded=0;orthogonalLoop=1;jettySize=auto;html=1;" edge="1" parent="mvioNwK95yMqdUQ73LqQ-36" source="--RPbOU_gB9kEVK29LaJ-39" target="--RPbOU_gB9kEVK29LaJ-41">
          <mxGeometry relative="1" as="geometry" />
        </mxCell>
        <mxCell id="--RPbOU_gB9kEVK29LaJ-39" value="รายการสินค้าที่ซื้อ" style="shape=parallelogram;perimeter=parallelogramPerimeter;whiteSpace=wrap;html=1;fixedSize=1;fontFamily=Sarabun;fontSource=https%3A%2F%2Ffonts.googleapis.com%2Fcss%3Ffamily%3DSarabun;align=center;" vertex="1" parent="mvioNwK95yMqdUQ73LqQ-36">
          <mxGeometry x="250" y="1600" width="140" height="30" as="geometry" />
        </mxCell>
        <mxCell id="--RPbOU_gB9kEVK29LaJ-44" value="" style="edgeStyle=orthogonalEdgeStyle;rounded=0;orthogonalLoop=1;jettySize=auto;html=1;" edge="1" parent="mvioNwK95yMqdUQ73LqQ-36" source="--RPbOU_gB9kEVK29LaJ-41" target="--RPbOU_gB9kEVK29LaJ-43">
          <mxGeometry relative="1" as="geometry" />
        </mxCell>
        <mxCell id="--RPbOU_gB9kEVK29LaJ-46" value="" style="edgeStyle=orthogonalEdgeStyle;rounded=0;orthogonalLoop=1;jettySize=auto;html=1;entryX=0.5;entryY=0;entryDx=0;entryDy=0;" edge="1" parent="mvioNwK95yMqdUQ73LqQ-36" source="--RPbOU_gB9kEVK29LaJ-41" target="--RPbOU_gB9kEVK29LaJ-45">
          <mxGeometry relative="1" as="geometry" />
        </mxCell>
        <mxCell id="--RPbOU_gB9kEVK29LaJ-41" value="qty_โค้ก &amp;gt; 0" style="rhombus;whiteSpace=wrap;html=1;" vertex="1" parent="mvioNwK95yMqdUQ73LqQ-36">
          <mxGeometry x="275" y="1660" width="90" height="90" as="geometry" />
        </mxCell>
        <mxCell id="--RPbOU_gB9kEVK29LaJ-43" value="โค้ก x (จำนวน) =___บาท" style="shape=parallelogram;perimeter=parallelogramPerimeter;whiteSpace=wrap;html=1;fixedSize=1;fontFamily=Sarabun;fontSource=https%3A%2F%2Ffonts.googleapis.com%2Fcss%3Ffamily%3DSarabun;align=center;" vertex="1" parent="mvioNwK95yMqdUQ73LqQ-36">
          <mxGeometry x="242.04" y="1780" width="155.93" height="30" as="geometry" />
        </mxCell>
        <mxCell id="--RPbOU_gB9kEVK29LaJ-48" value="" style="edgeStyle=orthogonalEdgeStyle;rounded=0;orthogonalLoop=1;jettySize=auto;html=1;" edge="1" parent="mvioNwK95yMqdUQ73LqQ-36" source="--RPbOU_gB9kEVK29LaJ-45" target="--RPbOU_gB9kEVK29LaJ-47">
          <mxGeometry relative="1" as="geometry" />
        </mxCell>
        <mxCell id="--RPbOU_gB9kEVK29LaJ-45" value="qty_เมล็ดทานตะวัน &amp;gt; 0" style="rhombus;whiteSpace=wrap;html=1;" vertex="1" parent="mvioNwK95yMqdUQ73LqQ-36">
          <mxGeometry x="455" y="1749" width="135.94" height="92" as="geometry" />
        </mxCell>
        <mxCell id="--RPbOU_gB9kEVK29LaJ-47" value="เมล็ดทานตะวัน x (จำนวน) =___บาท" style="shape=parallelogram;perimeter=parallelogramPerimeter;whiteSpace=wrap;html=1;fixedSize=1;fontFamily=Sarabun;fontSource=https%3A%2F%2Ffonts.googleapis.com%2Fcss%3Ffamily%3DSarabun;align=center;" vertex="1" parent="mvioNwK95yMqdUQ73LqQ-36">
          <mxGeometry x="417.97" y="1870" width="210" height="30" as="geometry" />
        </mxCell>
        <mxCell id="--RPbOU_gB9kEVK29LaJ-52" value="" style="edgeStyle=orthogonalEdgeStyle;rounded=0;orthogonalLoop=1;jettySize=auto;html=1;" edge="1" parent="mvioNwK95yMqdUQ73LqQ-36" source="--RPbOU_gB9kEVK29LaJ-49" target="--RPbOU_gB9kEVK29LaJ-51">
          <mxGeometry relative="1" as="geometry" />
        </mxCell>
        <mxCell id="--RPbOU_gB9kEVK29LaJ-49" value="qty_น้ำเขียว &amp;gt; 0" style="rhombus;whiteSpace=wrap;html=1;" vertex="1" parent="mvioNwK95yMqdUQ73LqQ-36">
          <mxGeometry x="645" y="1841" width="90" height="80" as="geometry" />
        </mxCell>
        <mxCell id="--RPbOU_gB9kEVK29LaJ-50" value="" style="edgeStyle=orthogonalEdgeStyle;rounded=0;orthogonalLoop=1;jettySize=auto;html=1;entryX=0.5;entryY=0;entryDx=0;entryDy=0;exitX=1;exitY=0.5;exitDx=0;exitDy=0;" edge="1" parent="mvioNwK95yMqdUQ73LqQ-36" source="--RPbOU_gB9kEVK29LaJ-45" target="--RPbOU_gB9kEVK29LaJ-49">
          <mxGeometry relative="1" as="geometry">
            <mxPoint x="550" y="1730" as="sourcePoint" />
            <mxPoint x="708" y="1774" as="targetPoint" />
          </mxGeometry>
        </mxCell>
        <mxCell id="--RPbOU_gB9kEVK29LaJ-51" value="น้ำเขียว x (จำนวน) =___บาท" style="shape=parallelogram;perimeter=parallelogramPerimeter;whiteSpace=wrap;html=1;fixedSize=1;fontFamily=Sarabun;fontSource=https%3A%2F%2Ffonts.googleapis.com%2Fcss%3Ffamily%3DSarabun;align=center;" vertex="1" parent="mvioNwK95yMqdUQ73LqQ-36">
          <mxGeometry x="610" y="1950" width="160" height="30" as="geometry" />
        </mxCell>
        <mxCell id="--RPbOU_gB9kEVK29LaJ-53" value="qty_ถั่วแปป &amp;gt; 0" style="rhombus;whiteSpace=wrap;html=1;" vertex="1" parent="mvioNwK95yMqdUQ73LqQ-36">
          <mxGeometry x="800" y="1925" width="90" height="80" as="geometry" />
        </mxCell>
        <mxCell id="--RPbOU_gB9kEVK29LaJ-54" value="" style="edgeStyle=orthogonalEdgeStyle;rounded=0;orthogonalLoop=1;jettySize=auto;html=1;entryX=0.5;entryY=0;entryDx=0;entryDy=0;exitX=1;exitY=0.5;exitDx=0;exitDy=0;" edge="1" parent="mvioNwK95yMqdUQ73LqQ-36" source="--RPbOU_gB9kEVK29LaJ-49" target="--RPbOU_gB9kEVK29LaJ-53">
          <mxGeometry relative="1" as="geometry">
            <mxPoint x="750" y="1840" as="sourcePoint" />
            <mxPoint x="849" y="1886" as="targetPoint" />
          </mxGeometry>
        </mxCell>
        <mxCell id="--RPbOU_gB9kEVK29LaJ-55" value="ถั่วแปป x (จำนวน) =___บาท" style="shape=parallelogram;perimeter=parallelogramPerimeter;whiteSpace=wrap;html=1;fixedSize=1;fontFamily=Sarabun;fontSource=https%3A%2F%2Ffonts.googleapis.com%2Fcss%3Ffamily%3DSarabun;align=center;" vertex="1" parent="mvioNwK95yMqdUQ73LqQ-36">
          <mxGeometry x="765" y="2040" width="160" height="30" as="geometry" />
        </mxCell>
        <mxCell id="--RPbOU_gB9kEVK29LaJ-56" value="" style="edgeStyle=orthogonalEdgeStyle;rounded=0;orthogonalLoop=1;jettySize=auto;html=1;" edge="1" parent="mvioNwK95yMqdUQ73LqQ-36" source="--RPbOU_gB9kEVK29LaJ-53" target="--RPbOU_gB9kEVK29LaJ-55">
          <mxGeometry relative="1" as="geometry" />
        </mxCell>
        <mxCell id="--RPbOU_gB9kEVK29LaJ-60" value="" style="edgeStyle=orthogonalEdgeStyle;rounded=0;orthogonalLoop=1;jettySize=auto;html=1;" edge="1" parent="mvioNwK95yMqdUQ73LqQ-36" source="--RPbOU_gB9kEVK29LaJ-57" target="--RPbOU_gB9kEVK29LaJ-59">
          <mxGeometry relative="1" as="geometry" />
        </mxCell>
        <mxCell id="--RPbOU_gB9kEVK29LaJ-57" value="qty_อเมริกาโน่ &amp;gt; 0" style="rhombus;whiteSpace=wrap;html=1;" vertex="1" parent="mvioNwK95yMqdUQ73LqQ-36">
          <mxGeometry x="950" y="2010" width="100" height="90" as="geometry" />
        </mxCell>
        <mxCell id="--RPbOU_gB9kEVK29LaJ-58" value="" style="edgeStyle=orthogonalEdgeStyle;rounded=0;orthogonalLoop=1;jettySize=auto;html=1;entryX=0.5;entryY=0;entryDx=0;entryDy=0;exitX=1;exitY=0.5;exitDx=0;exitDy=0;" edge="1" parent="mvioNwK95yMqdUQ73LqQ-36" source="--RPbOU_gB9kEVK29LaJ-53" target="--RPbOU_gB9kEVK29LaJ-57">
          <mxGeometry relative="1" as="geometry">
            <mxPoint x="820" y="1930" as="sourcePoint" />
            <mxPoint x="930" y="1974" as="targetPoint" />
          </mxGeometry>
        </mxCell>
        <mxCell id="--RPbOU_gB9kEVK29LaJ-59" value="อเมริกาโน่ x (จำนวน) =___บาท" style="shape=parallelogram;perimeter=parallelogramPerimeter;whiteSpace=wrap;html=1;fixedSize=1;fontFamily=Sarabun;fontSource=https%3A%2F%2Ffonts.googleapis.com%2Fcss%3Ffamily%3DSarabun;align=center;" vertex="1" parent="mvioNwK95yMqdUQ73LqQ-36">
          <mxGeometry x="915" y="2120" width="170" height="30" as="geometry" />
        </mxCell>
        <mxCell id="--RPbOU_gB9kEVK29LaJ-64" value="" style="edgeStyle=orthogonalEdgeStyle;rounded=0;orthogonalLoop=1;jettySize=auto;html=1;" edge="1" parent="mvioNwK95yMqdUQ73LqQ-36" source="--RPbOU_gB9kEVK29LaJ-61" target="--RPbOU_gB9kEVK29LaJ-63">
          <mxGeometry relative="1" as="geometry" />
        </mxCell>
        <mxCell id="--RPbOU_gB9kEVK29LaJ-61" value="qty_จิ้นส้มหมก &amp;gt; 0" style="rhombus;whiteSpace=wrap;html=1;" vertex="1" parent="mvioNwK95yMqdUQ73LqQ-36">
          <mxGeometry x="1110" y="2090" width="100" height="90" as="geometry" />
        </mxCell>
        <mxCell id="--RPbOU_gB9kEVK29LaJ-62" value="" style="edgeStyle=orthogonalEdgeStyle;rounded=0;orthogonalLoop=1;jettySize=auto;html=1;entryX=0.5;entryY=0;entryDx=0;entryDy=0;exitX=1;exitY=0.5;exitDx=0;exitDy=0;" edge="1" parent="mvioNwK95yMqdUQ73LqQ-36" source="--RPbOU_gB9kEVK29LaJ-57" target="--RPbOU_gB9kEVK29LaJ-61">
          <mxGeometry relative="1" as="geometry">
            <mxPoint x="1030" y="1980" as="sourcePoint" />
            <mxPoint x="1140" y="2025" as="targetPoint" />
          </mxGeometry>
        </mxCell>
        <mxCell id="--RPbOU_gB9kEVK29LaJ-63" value="จิ้นส้มหมก x (จำนวน) =___บาท" style="shape=parallelogram;perimeter=parallelogramPerimeter;whiteSpace=wrap;html=1;fixedSize=1;fontFamily=Sarabun;fontSource=https%3A%2F%2Ffonts.googleapis.com%2Fcss%3Ffamily%3DSarabun;align=center;" vertex="1" parent="mvioNwK95yMqdUQ73LqQ-36">
          <mxGeometry x="1070" y="2200" width="180" height="27" as="geometry" />
        </mxCell>
        <mxCell id="--RPbOU_gB9kEVK29LaJ-69" value="" style="edgeStyle=orthogonalEdgeStyle;rounded=0;orthogonalLoop=1;jettySize=auto;html=1;" edge="1" parent="mvioNwK95yMqdUQ73LqQ-36" source="--RPbOU_gB9kEVK29LaJ-65" target="--RPbOU_gB9kEVK29LaJ-67">
          <mxGeometry relative="1" as="geometry" />
        </mxCell>
        <mxCell id="--RPbOU_gB9kEVK29LaJ-65" value="qty_ลาเต้_หวานเจี๊ยบ &amp;gt; 0" style="rhombus;whiteSpace=wrap;html=1;" vertex="1" parent="mvioNwK95yMqdUQ73LqQ-36">
          <mxGeometry x="1270" y="2163.5" width="140" height="100" as="geometry" />
        </mxCell>
        <mxCell id="--RPbOU_gB9kEVK29LaJ-66" value="" style="edgeStyle=orthogonalEdgeStyle;rounded=0;orthogonalLoop=1;jettySize=auto;html=1;entryX=0.5;entryY=0;entryDx=0;entryDy=0;exitX=1;exitY=0.5;exitDx=0;exitDy=0;" edge="1" parent="mvioNwK95yMqdUQ73LqQ-36" source="--RPbOU_gB9kEVK29LaJ-61" target="--RPbOU_gB9kEVK29LaJ-65">
          <mxGeometry relative="1" as="geometry">
            <mxPoint x="1170" y="2070" as="sourcePoint" />
            <mxPoint x="1280" y="2105" as="targetPoint" />
          </mxGeometry>
        </mxCell>
        <mxCell id="--RPbOU_gB9kEVK29LaJ-67" value="ลาเต้ หวานเจี๊ยบ x (จำนวน) =___บาท" style="shape=parallelogram;perimeter=parallelogramPerimeter;whiteSpace=wrap;html=1;fixedSize=1;fontFamily=Sarabun;fontSource=https%3A%2F%2Ffonts.googleapis.com%2Fcss%3Ffamily%3DSarabun;align=center;" vertex="1" parent="mvioNwK95yMqdUQ73LqQ-36">
          <mxGeometry x="1235" y="2290" width="210" height="30" as="geometry" />
        </mxCell>
        <mxCell id="--RPbOU_gB9kEVK29LaJ-74" value="" style="edgeStyle=orthogonalEdgeStyle;rounded=0;orthogonalLoop=1;jettySize=auto;html=1;" edge="1" parent="mvioNwK95yMqdUQ73LqQ-36" source="--RPbOU_gB9kEVK29LaJ-70" target="--RPbOU_gB9kEVK29LaJ-71">
          <mxGeometry relative="1" as="geometry" />
        </mxCell>
        <mxCell id="--RPbOU_gB9kEVK29LaJ-70" value="ยอดเงินที่จ่าย:__บาท" style="shape=parallelogram;perimeter=parallelogramPerimeter;whiteSpace=wrap;html=1;fixedSize=1;fontFamily=Sarabun;fontSource=https%3A%2F%2Ffonts.googleapis.com%2Fcss%3Ffamily%3DSarabun;align=center;" vertex="1" parent="mvioNwK95yMqdUQ73LqQ-36">
          <mxGeometry x="1270" y="2350" width="140" height="30" as="geometry" />
        </mxCell>
        <mxCell id="--RPbOU_gB9kEVK29LaJ-77" value="" style="edgeStyle=orthogonalEdgeStyle;rounded=0;orthogonalLoop=1;jettySize=auto;html=1;" edge="1" parent="mvioNwK95yMqdUQ73LqQ-36" source="--RPbOU_gB9kEVK29LaJ-71" target="--RPbOU_gB9kEVK29LaJ-76">
          <mxGeometry relative="1" as="geometry" />
        </mxCell>
        <mxCell id="--RPbOU_gB9kEVK29LaJ-71" value="เงินทอน:__บาท" style="shape=parallelogram;perimeter=parallelogramPerimeter;whiteSpace=wrap;html=1;fixedSize=1;fontFamily=Sarabun;fontSource=https%3A%2F%2Ffonts.googleapis.com%2Fcss%3Ffamily%3DSarabun;align=center;" vertex="1" parent="mvioNwK95yMqdUQ73LqQ-36">
          <mxGeometry x="1285" y="2410" width="110" height="30" as="geometry" />
        </mxCell>
        <mxCell id="--RPbOU_gB9kEVK29LaJ-73" value="" style="edgeStyle=orthogonalEdgeStyle;rounded=0;orthogonalLoop=1;jettySize=auto;html=1;entryX=0.5;entryY=0;entryDx=0;entryDy=0;exitX=0.5;exitY=1;exitDx=0;exitDy=0;" edge="1" parent="mvioNwK95yMqdUQ73LqQ-36" source="--RPbOU_gB9kEVK29LaJ-67" target="--RPbOU_gB9kEVK29LaJ-70">
          <mxGeometry relative="1" as="geometry">
            <mxPoint x="1360" y="2310" as="sourcePoint" />
            <mxPoint x="1360" y="2336" as="targetPoint" />
          </mxGeometry>
        </mxCell>
        <mxCell id="--RPbOU_gB9kEVK29LaJ-78" value="" style="edgeStyle=orthogonalEdgeStyle;rounded=0;orthogonalLoop=1;jettySize=auto;html=1;" edge="1" parent="mvioNwK95yMqdUQ73LqQ-36" source="--RPbOU_gB9kEVK29LaJ-76" target="mvioNwK95yMqdUQ73LqQ-69">
          <mxGeometry relative="1" as="geometry" />
        </mxCell>
        <mxCell id="--RPbOU_gB9kEVK29LaJ-76" value="ขอบคุณที่ใช้บริการ" style="shape=parallelogram;perimeter=parallelogramPerimeter;whiteSpace=wrap;html=1;fixedSize=1;fontFamily=Sarabun;fontSource=https%3A%2F%2Ffonts.googleapis.com%2Fcss%3Ffamily%3DSarabun;align=center;" vertex="1" parent="mvioNwK95yMqdUQ73LqQ-36">
          <mxGeometry x="1277.5" y="2490" width="125" height="30" as="geometry" />
        </mxCell>
        <mxCell id="mvioNwK95yMqdUQ73LqQ-70" value="&lt;font data-font-src=&quot;https://fonts.googleapis.com/css?family=Sarabun&quot; face=&quot;Sarabun&quot;&gt;โจทย์ปัญหา&lt;/font&gt;" style="swimlane;whiteSpace=wrap;html=1;" parent="WIyWlLk6GJQsqaUBKTNV-1" vertex="1">
          <mxGeometry x="-720" y="320" width="640" height="240" as="geometry" />
        </mxCell>
        <mxCell id="mvioNwK95yMqdUQ73LqQ-71" value="&lt;font data-font-src=&quot;https://fonts.googleapis.com/css?family=Sarabun&quot; face=&quot;Sarabun&quot; style=&quot;font-size: 14px;&quot;&gt;จงเขียน Flowchart เพื่อแสดงขั้นตอนการทำงาน ของเครื่องขายน้ำอัตโนมัติที่ชื่อว่า &quot;ตะพาบลอย&quot;&lt;br&gt;โดยจะต้องมีสินค้าดังนี้&lt;br&gt;&lt;u&gt;ประเภทน้ำ&lt;span style=&quot;white-space: pre;&quot;&gt;&#x9;&lt;/span&gt;&lt;span style=&quot;white-space: pre;&quot;&gt;&#x9;&lt;/span&gt;&lt;span style=&quot;white-space: pre;&quot;&gt;&#x9;&lt;/span&gt;&lt;span style=&quot;white-space: pre;&quot;&gt;&#x9;&lt;/span&gt;&lt;span style=&quot;white-space: pre;&quot;&gt;&#x9;&lt;/span&gt;&lt;span style=&quot;white-space: pre;&quot;&gt;&#x9;&lt;span style=&quot;white-space: pre;&quot;&gt;&#x9;&lt;/span&gt;ข&lt;/span&gt;นม&lt;/u&gt;&lt;br&gt;&lt;span style=&quot;white-space: pre;&quot;&gt;&#x9;&lt;/span&gt;- โค้ก กระป๋องละ 10 บาท&lt;span style=&quot;white-space: pre;&quot;&gt;&#x9;&lt;/span&gt;&lt;span style=&quot;white-space: pre;&quot;&gt;&#x9;&lt;/span&gt;&lt;span style=&quot;white-space: pre;&quot;&gt;&#x9;&lt;/span&gt;&lt;span style=&quot;white-space: pre;&quot;&gt;&#x9;&lt;/span&gt;- เมล็ดทานตะวัน 13 บาท&lt;br&gt;&lt;span style=&quot;white-space: pre;&quot;&gt;&#x9;&lt;/span&gt;- น้ำเขียว กระป๋องละ 12 บาท&lt;span style=&quot;white-space: pre;&quot;&gt;&#x9;&lt;/span&gt;&lt;span style=&quot;white-space: pre;&quot;&gt;&#x9;&lt;/span&gt;&lt;span style=&quot;white-space: pre;&quot;&gt;&#x9;&lt;/span&gt;- ถั่วแปบ 20 บาท&lt;br&gt;&lt;span style=&quot;white-space: pre;&quot;&gt;&#x9;&lt;/span&gt;- อเมริกาโน่ 30 บาท&lt;span style=&quot;white-space: pre;&quot;&gt;&#x9;&lt;/span&gt;&lt;span style=&quot;white-space: pre;&quot;&gt;&#x9;&lt;/span&gt;&lt;span style=&quot;white-space: pre;&quot;&gt;&#x9;&lt;/span&gt;&lt;span style=&quot;white-space: pre;&quot;&gt;&#x9;&lt;/span&gt;&lt;span style=&quot;white-space: pre;&quot;&gt;&#x9;&lt;/span&gt;- จิ้นส้มหมก 15 บาท&lt;br&gt;&lt;span style=&quot;white-space: pre;&quot;&gt;&#x9;&lt;/span&gt;- ลาเต้ หวานเจี๊ยบ 35 บาท&lt;span style=&quot;white-space: pre;&quot;&gt;&#x9;&lt;/span&gt;&lt;br&gt;&lt;br&gt;&lt;u&gt;สิ่งที่ระบบควรจะทำได้&lt;/u&gt;&lt;br&gt;&lt;span style=&quot;white-space: pre;&quot;&gt;&#x9;&lt;/span&gt;- ลูกค้าเลือกสินค้า, ระบบจะต้องรวมยอดขาย และรวมรายการสินค้าทั้งหมดที่ลูกค้าเลือก&lt;br&gt;&lt;span style=&quot;white-space: pre;&quot;&gt;&#x9;&lt;/span&gt;- สรุปยอดว่าเหลือเงินในตู้อีกเท่าไหร่ เหลือเหรียญอะไรบ้าง? ธนบัตรอะไรบ้าง? อย่างละเท่าไหร่?&lt;br&gt;&lt;br&gt;&lt;br&gt;&lt;/font&gt;" style="text;html=1;align=left;verticalAlign=middle;resizable=0;points=[];autosize=1;strokeColor=none;fillColor=none;fontSize=14;" parent="mvioNwK95yMqdUQ73LqQ-70" vertex="1">
          <mxGeometry x="25" y="30" width="580" height="240" as="geometry" />
        </mxCell>
      </root>
    </mxGraphModel>
  </diagram>
</mxfile>
